name rise49.8558peak67.6521fall70.3087.mot
datacolumns 19
datarows 21
range 23.59158100000000 23.62492000000000
endheader
time	ground_force1_vx	ground_force1_vy	ground_force1_vz	ground_force1_px	ground_force1_py	ground_force1_pz	ground_force2_vx	ground_force2_vy	ground_force2_vz	ground_force2_px	ground_force2_py	ground_force2_pz	ground_torque1_x	ground_torque1_y	ground_torque1_z	ground_torque2_x	ground_torque2_y	ground_torque2_z	
23.59158100000000	55.91463000000000	717.05788099999995	53.69009400000000	0.36878200000000	0.00000000000000	0.11769200000000	0.00000000000000	0.00000000000000	0.00000000000000	0.00000000000000	0.00000000000000	0.00000000000000	0.00000000000000	24.93796800000000	0.00000000000000	0.00000000000000	0.00000000000000	0.00000000000000	
23.59324100000000	55.28211800000000	720.20727999999997	54.01550300000000	0.36742900000000	0.00000000000000	0.11782200000000	0.00000000000000	0.00000000000000	0.00000000000000	0.00000000000000	0.00000000000000	0.00000000000000	0.00000000000000	25.14954800000000	0.00000000000000	0.00000000000000	0.00000000000000	0.00000000000000	
23.59492300000000	54.65855500000000	723.31080099999997	54.34841700000000	0.36611900000000	0.00000000000000	0.11795100000000	0.00000000000000	0.00000000000000	0.00000000000000	0.00000000000000	0.00000000000000	0.00000000000000	0.00000000000000	25.36739300000000	0.00000000000000	0.00000000000000	0.00000000000000	0.00000000000000	
23.59658400000000	54.04432000000000	726.36593500000004	54.68823800000000	0.36485100000000	0.00000000000000	0.11808000000000	0.00000000000000	0.00000000000000	0.00000000000000	0.00000000000000	0.00000000000000	0.00000000000000	0.00000000000000	25.59106400000000	0.00000000000000	0.00000000000000	0.00000000000000	0.00000000000000	
23.59824500000000	53.43970800000000	729.37008000000003	55.03428800000000	0.36362700000000	0.00000000000000	0.11820900000000	0.00000000000000	0.00000000000000	0.00000000000000	0.00000000000000	0.00000000000000	0.00000000000000	0.00000000000000	25.82007200000000	0.00000000000000	0.00000000000000	0.00000000000000	0.00000000000000	
23.59991400000000	52.84493200000000	732.32055600000001	55.38581300000000	0.36244500000000	0.00000000000000	0.11833700000000	0.00000000000000	0.00000000000000	0.00000000000000	0.00000000000000	0.00000000000000	0.00000000000000	0.00000000000000	26.05388300000000	0.00000000000000	0.00000000000000	0.00000000000000	0.00000000000000	
23.60157600000000	52.26012800000000	735.21462399999996	55.74198800000000	0.36130400000000	0.00000000000000	0.11846300000000	0.00000000000000	0.00000000000000	0.00000000000000	0.00000000000000	0.00000000000000	0.00000000000000	0.00000000000000	26.29191900000000	0.00000000000000	0.00000000000000	0.00000000000000	0.00000000000000	
23.60324200000000	51.68535300000000	738.04949599999998	56.10192700000000	0.36020500000000	0.00000000000000	0.11858900000000	0.00000000000000	0.00000000000000	0.00000000000000	0.00000000000000	0.00000000000000	0.00000000000000	0.00000000000000	26.53356000000000	0.00000000000000	0.00000000000000	0.00000000000000	0.00000000000000	
23.60492200000000	51.12059300000000	740.82235200000002	56.46468300000000	0.35914700000000	0.00000000000000	0.11871400000000	0.00000000000000	0.00000000000000	0.00000000000000	0.00000000000000	0.00000000000000	0.00000000000000	0.00000000000000	26.77815200000000	0.00000000000000	0.00000000000000	0.00000000000000	0.00000000000000	
23.60657600000000	50.56576400000000	743.53035799999998	56.82925900000000	0.35812800000000	0.00000000000000	0.11883700000000	0.00000000000000	0.00000000000000	0.00000000000000	0.00000000000000	0.00000000000000	0.00000000000000	0.00000000000000	27.02501100000000	0.00000000000000	0.00000000000000	0.00000000000000	0.00000000000000	
23.60824300000000	50.02071300000000	746.17067599999996	57.19461300000000	0.35714800000000	0.00000000000000	0.11895900000000	0.00000000000000	0.00000000000000	0.00000000000000	0.00000000000000	0.00000000000000	0.00000000000000	0.00000000000000	27.27342200000000	0.00000000000000	0.00000000000000	0.00000000000000	0.00000000000000	
23.60992300000000	49.48522900000000	748.74048300000004	57.55966500000000	0.35620500000000	0.00000000000000	0.11908000000000	0.00000000000000	0.00000000000000	0.00000000000000	0.00000000000000	0.00000000000000	0.00000000000000	0.00000000000000	27.52264800000000	0.00000000000000	0.00000000000000	0.00000000000000	0.00000000000000	
23.61157500000000	48.95903600000000	751.23698400000001	57.92330400000000	0.35529900000000	0.00000000000000	0.11919900000000	0.00000000000000	0.00000000000000	0.00000000000000	0.00000000000000	0.00000000000000	0.00000000000000	0.00000000000000	27.77193300000000	0.00000000000000	0.00000000000000	0.00000000000000	0.00000000000000	
23.61324800000000	48.44180800000000	753.65742699999998	58.28439300000000	0.35442700000000	0.00000000000000	0.11931700000000	0.00000000000000	0.00000000000000	0.00000000000000	0.00000000000000	0.00000000000000	0.00000000000000	0.00000000000000	28.02050600000000	0.00000000000000	0.00000000000000	0.00000000000000	0.00000000000000	
23.61491600000000	47.93316600000000	755.99911899999995	58.64178200000000	0.35358900000000	0.00000000000000	0.11943300000000	0.00000000000000	0.00000000000000	0.00000000000000	0.00000000000000	0.00000000000000	0.00000000000000	0.00000000000000	28.26758300000000	0.00000000000000	0.00000000000000	0.00000000000000	0.00000000000000	
23.61657500000000	47.43268300000000	758.25943600000005	58.99430800000000	0.35278200000000	0.00000000000000	0.11954700000000	0.00000000000000	0.00000000000000	0.00000000000000	0.00000000000000	0.00000000000000	0.00000000000000	0.00000000000000	28.51237600000000	0.00000000000000	0.00000000000000	0.00000000000000	0.00000000000000	
23.61824200000000	46.93989200000000	760.43584199999998	59.34080800000000	0.35200500000000	0.00000000000000	0.11966000000000	0.00000000000000	0.00000000000000	0.00000000000000	0.00000000000000	0.00000000000000	0.00000000000000	0.00000000000000	28.75409500000000	0.00000000000000	0.00000000000000	0.00000000000000	0.00000000000000	
23.61990600000000	46.45428600000000	762.52589699999999	59.68012200000000	0.35125700000000	0.00000000000000	0.11977100000000	0.00000000000000	0.00000000000000	0.00000000000000	0.00000000000000	0.00000000000000	0.00000000000000	0.00000000000000	28.99195200000000	0.00000000000000	0.00000000000000	0.00000000000000	0.00000000000000	
23.62157400000000	45.97532700000000	764.52727100000004	60.01110100000000	0.35053500000000	0.00000000000000	0.11987900000000	0.00000000000000	0.00000000000000	0.00000000000000	0.00000000000000	0.00000000000000	0.00000000000000	0.00000000000000	29.22516300000000	0.00000000000000	0.00000000000000	0.00000000000000	0.00000000000000	
23.62324200000000	45.50244500000000	766.43775800000003	60.33261600000000	0.34983700000000	0.00000000000000	0.11998600000000	0.00000000000000	0.00000000000000	0.00000000000000	0.00000000000000	0.00000000000000	0.00000000000000	0.00000000000000	29.45295800000000	0.00000000000000	0.00000000000000	0.00000000000000	0.00000000000000	
23.62492000000000	45.03504600000000	768.25528399999996	60.64356400000000	0.34916200000000	0.00000000000000	0.12009100000000	0.00000000000000	0.00000000000000	0.00000000000000	0.00000000000000	0.00000000000000	0.00000000000000	0.00000000000000	29.67458000000000	0.00000000000000	0.00000000000000	0.00000000000000	0.00000000000000	
